<svg width="93" height="20" viewBox="0 0 93 20" fill="none" xmlns="http://www.w3.org/2000/svg">
<path d="M5.808 18.304C5.808 18.768 5.544 19 5.016 19H1.416C0.984 19 0.768 18.8 0.768 18.4V14.704C0.768 14.352 0.92 14.176 1.224 14.176H5.376C5.664 14.176 5.808 14.336 5.808 14.656V18.304ZM14.9822 0.951999C15.9902 0.951999 16.9182 1.088 17.7662 1.36C18.6302 1.632 19.3902 2.016 20.0462 2.512C20.7182 3.008 21.2622 3.592 21.6782 4.264C22.1102 4.936 22.4062 5.672 22.5662 6.472C22.6462 6.808 22.6542 7.024 22.5902 7.12C22.5422 7.216 22.4302 7.28 22.2542 7.312L18.0542 7.576C17.8782 7.576 17.7662 7.544 17.7182 7.48C17.6702 7.4 17.6302 7.28 17.5982 7.12C17.4702 6.416 17.2222 5.832 16.8542 5.368C16.5022 4.888 15.9262 4.648 15.1262 4.648C14.2302 4.648 13.5102 5.048 12.9662 5.848C12.4382 6.632 12.1742 8 12.1742 9.952C12.1742 11.936 12.4142 13.328 12.8942 14.128C13.3902 14.912 14.1262 15.304 15.1022 15.304C15.9022 15.304 16.6062 15.104 17.2142 14.704C17.8382 14.288 18.3582 13.552 18.7742 12.496C18.8542 12.304 19.0782 12.24 19.4462 12.304L22.4462 12.904C22.5262 12.92 22.6142 12.976 22.7102 13.072C22.8062 13.168 22.8302 13.376 22.7822 13.696C22.7342 13.952 22.6062 14.304 22.3982 14.752C22.1902 15.2 21.8942 15.688 21.5102 16.216C21.1262 16.728 20.6302 17.216 20.0222 17.68C19.4142 18.128 18.6862 18.504 17.8382 18.808C17.0062 19.096 16.0382 19.24 14.9342 19.24C13.2222 19.24 11.7262 18.84 10.4462 18.04C9.18219 17.224 8.19819 16.112 7.49419 14.704C6.80619 13.28 6.46219 11.664 6.46219 9.856C6.46219 8.048 6.80619 6.48 7.49419 5.152C8.19819 3.824 9.19019 2.792 10.4702 2.056C11.7502 1.32 13.2542 0.951999 14.9822 0.951999ZM32.8215 19.24C31.0615 19.24 29.5335 18.872 28.2375 18.136C26.9415 17.384 25.9415 16.328 25.2375 14.968C24.5335 13.592 24.1815 11.984 24.1815 10.144C24.1815 8.288 24.5415 6.672 25.2615 5.296C25.9815 3.92 26.9895 2.856 28.2855 2.104C29.5815 1.336 31.0935 0.951999 32.8215 0.951999C34.5495 0.951999 36.0535 1.336 37.3335 2.104C38.6295 2.856 39.6295 3.92 40.3335 5.296C41.0535 6.672 41.4135 8.288 41.4135 10.144C41.4135 11.984 41.0615 13.584 40.3575 14.944C39.6535 16.304 38.6535 17.36 37.3575 18.112C36.0775 18.864 34.5655 19.24 32.8215 19.24ZM32.8215 15.496C33.8615 15.496 34.5975 15.096 35.0295 14.296C35.4775 13.496 35.7015 12.136 35.7015 10.216C35.7015 8.232 35.4775 6.808 35.0295 5.944C34.5815 5.08 33.8455 4.648 32.8215 4.648C31.7815 4.648 31.0295 5.08 30.5655 5.944C30.1175 6.808 29.8935 8.232 29.8935 10.216C29.8935 12.136 30.1095 13.496 30.5415 14.296C30.9895 15.096 31.7495 15.496 32.8215 15.496ZM57.9368 1.192C58.1288 1.192 58.2648 1.264 58.3448 1.408C58.4408 1.552 58.4568 1.712 58.3928 1.888L52.8248 18.4C52.7128 18.8 52.4168 19 51.9368 19H48.0488C47.5688 19 47.2728 18.8 47.1608 18.4L41.5928 1.888C41.5288 1.712 41.5368 1.552 41.6168 1.408C41.7128 1.264 41.8568 1.192 42.0488 1.192H46.6808C46.9848 1.192 47.1848 1.36 47.2808 1.696L50.4968 12.232C50.5768 12.472 50.6568 12.464 50.7368 12.208L53.7368 1.696C53.8168 1.36 54.0248 1.192 54.3608 1.192H57.9368ZM60.2402 1.744C60.2402 1.376 60.3922 1.192 60.6962 1.192H73.6562C73.9442 1.192 74.0882 1.36 74.0882 1.696L74.0642 4.48C74.0642 4.912 73.8562 5.128 73.4402 5.128H66.2402C65.8722 5.128 65.6882 5.28 65.6882 5.584V7.624C65.6882 7.96 65.8322 8.128 66.1202 8.128H70.4402C70.7762 8.128 70.9442 8.288 70.9442 8.608V11.584C70.9442 11.696 70.9122 11.792 70.8482 11.872C70.7842 11.952 70.6722 11.992 70.5122 11.992H66.0722C65.8162 11.992 65.6882 12.104 65.6882 12.328V14.728C65.6882 14.952 65.7842 15.064 65.9762 15.064H73.7762C74.1282 15.064 74.3042 15.216 74.3042 15.52V18.472C74.3042 18.616 74.2562 18.744 74.1602 18.856C74.0802 18.952 73.9362 19 73.7282 19H60.8882C60.4562 19 60.2402 18.8 60.2402 18.4V1.744ZM91.9178 18.232C91.9978 18.44 91.9898 18.624 91.8938 18.784C91.8138 18.928 91.6778 19 91.4858 19H86.8298C86.4938 19 86.2778 18.832 86.1818 18.496L83.9258 12.304C83.8298 12.048 83.5818 11.92 83.1818 11.92H82.0778C81.9658 11.92 81.8858 11.96 81.8378 12.04C81.8058 12.104 81.7898 12.152 81.7898 12.184V18.304C81.7898 18.768 81.5258 19 80.9978 19H76.9658C76.7258 19 76.5578 18.952 76.4618 18.856C76.3818 18.76 76.3418 18.608 76.3418 18.4V1.744C76.3418 1.376 76.4938 1.192 76.7978 1.192H84.8138C87.1338 1.192 88.9338 1.64 90.2138 2.536C91.4938 3.416 92.1338 4.664 92.1338 6.28C92.1338 7.032 91.9978 7.728 91.7258 8.368C91.4538 9.008 91.0778 9.56 90.5978 10.024C90.1338 10.472 89.5978 10.816 88.9898 11.056C88.8298 11.12 88.7978 11.272 88.8938 11.512L91.9178 18.232ZM84.5978 8.344C85.2058 8.344 85.6698 8.184 85.9898 7.864C86.3258 7.544 86.4938 7.128 86.4938 6.616C86.4938 6.008 86.2858 5.544 85.8698 5.224C85.4698 4.904 84.9978 4.744 84.4538 4.744H82.3418C81.9738 4.744 81.7898 4.904 81.7898 5.224V7.84C81.7898 8.176 81.9258 8.344 82.1978 8.344H84.5978Z" fill="white"/>
</svg>
